#!OML:ASF H:\MichaelJackson\Top Level 1\Subject 1\Session 1\male.ASF
:FULLY-SPECIFIED
:DEGREES
889
root -8.05378 16.3523 14.1312 -165.736 -1.44879 -168.228
lowerback -3.47755 5.09068 4.62822
upperback -2.28776 6.88519 2.09289
thorax -0.142196 3.50717 -0.17913
lowerneck -11.4515 -1.36375 3.03659
upperneck 19.3339 -3.27141 0.929609
head 7.83169 -1.47563 -0.558518
rclavicle 3.63776e-014 -1.94809e-014
rhumerus -46.8188 16.0846 -85.5089
rradius 77.5814
rwrist -8.29855
rhand 1.31142 -18.5789
rfingers 7.12502
rthumb 26.8459 -46.6931
lclavicle 3.63776e-014 -1.94809e-014
lhumerus -56.1109 -11.2665 85.2413
lradius 65.0464
lwrist 12.7055
lhand 10.4676 14.1312
lfingers 7.12502
lthumb 35.5697 40.5523
rfemur -10.9382 -16.9908 28.9412
rtibia 33.6331
rfoot -27.9072 -8.05942
rtoes -27.7854
lfemur -49.3933 30.9473 -18.7837
ltibia 64.9233
lfoot -23.9108 20.3756
ltoes 5.36481
890
root -8.09655 16.3562 14.0806 -167.164 -4.47394 -168.413
lowerback -2.87954 4.74594 4.62589
upperback -2.19209 6.02852 2.47432
thorax -0.434812 2.88818 0.127154
lowerneck -11.6405 -1.66904 2.6447
upperneck 19.7229 -3.68283 1.06663
head 7.99981 -1.68454 -0.49743
rclavicle -1.42628e-014 -1.94809e-014
rhumerus -47.0388 14.2433 -84.0423
rradius 77.9831
rwrist -11.2359
rhand 2.68063 -17.9907
rfingers 7.12502
rthumb 28.1553 -45.8966
lclavicle -1.42628e-014 -1.94809e-014
lhumerus -57.0966 -10.408 85.3769
lradius 64.7846
lwrist 13.4725
lhand 10.8313 15.3566
lfingers 7.12502
lthumb 35.9144 41.6941
rfemur -9.80756 -19.9079 28.5651
rtibia 34.7354
rfoot -27.5171 -7.48876
rtoes -29.5453
lfemur -47.5525 29.8054 -18.7459
ltibia 63.6888
lfoot -24.8544 20.7088
ltoes 4.97003
891
root -8.13978 16.3667 14.0472 -167.509 -6.24705 -168.077
lowerback -3.13285 4.63304 4.77985
upperback -2.37798 5.82782 2.87075
thorax -0.517076 2.76823 0.452682
lowerneck -11.6816 -1.95992 2.43499
upperneck 19.9301 -4.05799 1.05002
head 8.07651 -1.87899 -0.509813
rclavicle -4.03036e-014 -1.09332e-014
rhumerus -47.3437 12.4098 -82.5503
rradius 78.404
rwrist -14.2486
rhand 3.53285 -17.6055
rfingers 7.12502
rthumb 28.9696 -45.3745
lclavicle -4.03036e-014 -1.09332e-014
lhumerus -58.1115 -9.6399 85.5095
lradius 64.7929
lwrist 14.5246
lhand 10.3877 16.323
lfingers 7.12502
lthumb 35.494 42.7623
rfemur -10.2311 -21.7974 28.6407
rtibia 36.2627
rfoot -26.6571 -5.81673
rtoes -30.7831
lfemur -47.0001 29.6513 -18.828
ltibia 62.5396
lfoot -26.0384 20.1963
ltoes 6.18616
892
root -8.18787 16.3823 14.017 -167.737 -7.86255 -167.764
lowerback -3.59582 4.57223 4.85328
upperback -2.5742 5.67999 3.23199
thorax -0.494585 2.67636 0.805258
lowerneck -11.4414 -2.24514 2.45849
upperneck 19.9204 -4.43334 0.941097
head 8.02353 -2.07101 -0.583719
rclavicle 6.20954e-014 -1.21259e-014
rhumerus -47.7116 10.712 -81.0266
rradius 78.7269
rwrist -17.1625
rhand 4.02926 -17.398
rfingers 7.12502
rthumb 29.4436 -45.0846
lclavicle 6.20954e-014 -1.21259e-014
lhumerus -59.0536 -8.88603 85.5558
lradius 64.7511
lwrist 15.4433
lhand 9.41082 16.2107
lfingers 7.12502
lthumb 34.5673 42.8667
rfemur -11.1041 -23.4893 28.5816
rtibia 38.3335
rfoot -25.5446 -3.78576
rtoes -32.5062
lfemur -46.3873 29.1783 -18.6488
ltibia 61.4084
lfoot -26.9739 19.1947
ltoes 7.43963
893
root -8.24375 16.4065 13.9893 -168.344 -9.6944 -167.631
lowerback -3.65981 4.3563 4.82565
upperback -2.614 5.36568 3.60074
thorax -0.544182 2.51054 1.18816
lowerneck -11.338 -2.5004 2.17071
upperneck 19.9199 -4.76271 1.10129
head 8.0129 -2.23453 -0.514804
rclavicle 8.54339e-014 6.10766e-014
rhumerus -47.9199 9.26101 -79.4346
rradius 78.8443
rwrist -19.7064
rhand 4.02807 -17.2709
rfingers 7.12502
rthumb 29.4425 -44.9576
lclavicle 8.54339e-014 6.10766e-014
lhumerus -59.9599 -8.05196 85.5873
lradius 64.894
lwrist 15.7402
lhand 8.82929 16.8049
lfingers 7.12502
lthumb 34.0151 43.5853
rfemur -11.8774 -25.2202 28.0728
rtibia 41.0749
rfoot -24.0948 -1.5422
rtoes -34.4068
lfemur -45.0979 28.1778 -18.0525
ltibia 60.3223
lfoot -27.5606 17.7557
ltoes 7.95086
894
root -8.30315 16.4226 13.9682 -169.052 -11.4457 -167.5
lowerback -3.58118 4.19248 4.86347
upperback -2.62139 5.13514 3.90568
thorax -0.623542 2.3881 1.4649
lowerneck -11.3308 -2.77633 1.97851
upperneck 20.0178 -5.14917 1.24865
head 8.05145 -2.41824 -0.475163
rclavicle 2.76182e-014 -2.16132e-014
rhumerus -48.0935 7.83028 -77.8783
rradius 78.6768
rwrist -21.7389
rhand 3.47719 -17.2141
rfingers 7.12502
rthumb 28.9164 -44.9922
lclavicle 2.76182e-014 -2.16132e-014
lhumerus -60.8479 -7.44116 85.5867
lradius 65.0966
lwrist 15.9197
lhand 7.20746 16.5366
lfingers 7.12502
lthumb 32.4731 43.6465
rfemur -12.9131 -26.8419 27.3237
rtibia 44.4228
rfoot -21.9744 1.33834
rtoes -35.9075
lfemur -43.5839 26.8809 -17.1845
ltibia 59.2765
lfoot -28.0424 16.0114
ltoes 8.70484
895
root -8.36696 16.4398 13.9573 -169.698 -13.0155 -167.61
lowerback -3.51431 3.95246 4.67906
upperback -2.46983 4.80908 4.22688
thorax -0.550202 2.22931 1.88488
lowerneck -11.6893 -2.95789 1.63346
upperneck 20.2032 -5.35979 1.33832
head 8.18916 -2.52388 -0.420176
rclavicle -5.11001e-014 -2.04748e-014
rhumerus -47.8945 6.99244 -76.3088
rradius 78.2632
rwrist -23.0633
rhand 2.29239 -17.0331
rfingers 7.12502
rthumb 27.7842 -44.9994
lclavicle -5.11001e-014 -2.04748e-014
lhumerus -61.1838 -6.28735 85.4505
lradius 64.8368
lwrist 15.4343
lhand 5.9583 14.7381
lfingers 7.12502
lthumb 31.2836 42.0852
rfemur -14.3895 -28.1911 26.1072
rtibia 48.273
rfoot -18.4569 5.24464
rtoes -35.1215
lfemur -41.9811 25.3427 -16.4937
ltibia 58.2395
lfoot -29.2514 13.3696
ltoes 14.0911
896
root -8.43284 16.4672 13.9506 -170.321 -14.4414 -167.864
lowerback -3.31917 3.78707 4.48983
upperback -2.41047 4.60656 4.40167
thorax -0.627475 2.13193 2.15045
lowerneck -11.7118 -3.14623 1.59025
upperneck 20.3384 -5.60543 1.2511
head 8.23649 -2.65109 -0.470039
rclavicle 1.88348e-014 1.55052e-014
rhumerus -47.9478 6.30313 -74.9166
rradius 77.8015
rwrist -23.3613
rhand -0.00296255 -17.0433
rfingers 7.12502
rthumb 25.5875 -45.3444
lclavicle 1.88348e-014 1.55052e-014
lhumerus -61.6847 -5.39282 85.2347
lradius 64.3815
lwrist 14.9769
lhand 4.2869 18.539
lfingers 7.12502
lthumb 29.6896 46.182
rfemur -16.1983 -28.9102 24.5515
rtibia 52.4855
rfoot -13.946 9.51995
rtoes -33.8429
lfemur -40.4227 23.9269 -16.0721
ltibia 57.2182
lfoot -29.8805 10.8187
ltoes 18.2613
897
root -8.49676 16.5066 13.9466 -171.011 -15.7043 -168.396
lowerback -2.90633 3.61594 4.05714
upperback -2.34429 4.4316 4.50078
thorax -0.829888 2.05609 2.46069
lowerneck -11.7236 -3.33108 1.3618
upperneck 20.6264 -5.84883 1.25333
head 8.34167 -2.78478 -0.462951
rclavicle -2.17918e-014 -2.74323e-014
rhumerus -48.1297 5.9125 -73.6881
rradius 77.3625
rwrist -22.4816
rhand -3.39282 -17.072
rfingers 7.12502
rthumb 22.3369 -45.8008
lclavicle -2.17918e-014 -2.74323e-014
lhumerus -62.4892 -4.72236 85.0094
lradius 64.3651
lwrist 14.1735
lhand 3.30364 17.8273
lfingers 7.12502
lthumb 28.7507 45.6337
rfemur -18.1035 -28.8776 22.4953
rtibia 56.8504
rfoot -7.84434 14.1452
rtoes -30.3012
lfemur -38.8393 22.711 -16.0807
ltibia 56.1915
lfoot -29.6771 9.08817
ltoes 19.9282
898
root -8.55852 16.5507 13.943 -171.45 -16.6608 -169.081
lowerback -2.82865 3.48418 3.47503
upperback -2.07446 4.27911 4.59764
thorax -0.643634 2.00003 2.88223
lowerneck -12.0714 -3.42439 1.21089
upperneck 20.8382 -5.89975 1.01439
head 8.47225 -2.83259 -0.533955
rclavicle 1.01753e-013 5.60573e-014
rhumerus -47.82 5.99801 -72.4721
rradius 76.9826
rwrist -20.4677
rhand -7.0684 -18.1071
rfingers 7.12502
rthumb 18.805 -47.2182
lclavicle 1.01753e-013 5.60573e-014
lhumerus -62.8565 -3.93531 84.8643
lradius 64.001
lwrist 14.0709
lhand 1.4485 15.1021
lfingers 7.12502
lthumb 26.977 43.1961
rfemur -20.4527 -28.1051 20.2576
rtibia 61.2576
rfoot 0.617027 18.7805
rtoes -24.1895
lfemur -37.6821 22.0668 -16.6696
ltibia 55.145
lfoot -29.2921 7.98172
ltoes 21.571
899
root -8.6119 16.6019 13.9426 -171.902 -17.4952 -169.891
lowerback -2.41571 3.43896 2.82185
upperback -1.92484 4.27557 4.61514
thorax -0.770346 2.01706 3.24099
lowerneck -12.3432 -3.61183 0.923573
upperneck 21.1649 -6.08029 0.826834
head 8.63437 -2.95191 -0.581279
rclavicle 4.19933e-014 -1.19271e-015
rhumerus -47.9518 6.05519 -71.375
rradius 76.9292
rwrist -16.7483
rhand -10.8332 -19.9561
rfingers 7.12502
rthumb 15.1812 -49.3792
lclavicle 4.19933e-014 -1.19271e-015
lhumerus -63.4535 -3.67233 84.8731
lradius 63.8764
lwrist 14.1258
lhand -0.571211 14.1061
lfingers 7.12502
lthumb 25.0431 42.4844
rfemur -22.7789 -26.4615 17.7837
rtibia 65.6399
rfoot 10.1449 22.1258
rtoes -18.561
lfemur -36.5575 21.7166 -17.5115
ltibia 54.1052
lfoot -28.5678 7.42885
ltoes 22.0203
900
root -8.65794 16.659 13.947 -172.307 -18.4479 -170.899
lowerback -1.94541 3.29529 1.94536
upperback -1.76951 4.14559 4.62452
thorax -0.93318 1.97554 3.71253
lowerneck -12.3631 -3.71085 0.835407
upperneck 21.284 -6.10311 0.39004
head 8.66486 -3.01194 -0.717274
rclavicle 4.18939e-014 -1.43125e-014
rhumerus -48.067 6.3085 -70.302
rradius 77.0274
rwrist -11.4938
rhand -14.084 -22.1371
rfingers 7.12502
rthumb 12.0481 -51.7703
lclavicle 4.18939e-014 -1.43125e-014
lhumerus -64.0536 -3.40259 84.797
lradius 63.7421
lwrist 14.55
lhand -1.1612 11.7176
lfingers 7.12502
lthumb 24.4777 40.1735
rfemur -24.971 -24.4735 14.9392
rtibia 69.984
rfoot 19.9399 24.7594
rtoes -9.54634
lfemur -35.4322 21.3252 -18.5904
ltibia 53.0145
lfoot -27.7299 7.09509
ltoes 22.0893
901
root -8.69818 16.7033 13.9566 -172.789 -19.3026 -171.78
lowerback -1.50334 3.20239 1.15735
upperback -1.48281 4.06061 4.71704
thorax -0.944551 1.9517 4.23098
lowerneck -12.3826 -3.81698 0.700102
upperneck 21.2439 -6.10064 -0.0712229
head 8.64166 -3.06375 -0.847228
rclavicle 2.12203e-014 3.81667e-014
rhumerus -47.9882 6.48006 -69.0925
rradius 77.2255
rwrist -5.21489
rhand -16.558 -24.1414
rfingers 7.12502
rthumb 9.66185 -53.8998
lclavicle 2.12203e-014 3.81667e-014
lhumerus -64.5022 -3.45023 85.1023
lradius 63.8014
lwrist 15.3449
lhand -2.65414 10.9868
lfingers 7.12502
lthumb 23.0459 39.6288
rfemur -27.0217 -22.1896 12.0503
rtibia 74.2799
rfoot 29.1343 27.1516
rtoes -4.02481
lfemur -34.1605 20.844 -19.4195
ltibia 51.9007
lfoot -27.0324 6.74083
ltoes 22.367
